<svg xmlns="http://www.w3.org/2000/svg" xmlns:xlink="http://www.w3.org/1999/xlink" viewBox="0 0 1050 697"><defs><clipPath id="clip-path"><path d="M1020.66,1.7H29.34A28.85,28.85,0,0,0,.49,30.55V422.29a28.85,28.85,0,0,0,28.85,28.85H273.17a47.59,47.59,0,0,0,45.94-35.82C343,323.94,426.12,256.5,525,256.5s182,67.44,205.89,158.82a47.59,47.59,0,0,0,45.94,35.82h243.83a28.85,28.85,0,0,0,28.85-28.85V30.55A28.85,28.85,0,0,0,1020.66,1.7Z" style="fill:none"/></clipPath><linearGradient id="abc_4" x1="349" y1="451" x2="701" y2="451" gradientUnits="userSpaceOnUse"><stop offset="0" stop-color="#4914db"/><stop offset="1" stop-color="#dd00a9"/></linearGradient><clipPath id="clip-path-2"><circle cx="525" cy="451" r="150" style="fill:none"/></clipPath></defs><g style="isolation:isolate"><g id="Layer_1" data-name="Layer 1"><g style="clip-path:url(#clip-path)"><image width="1050" height="450" xlink:href="assets/cover.jpg"/></g><image width="472" height="472" transform="translate(299 225)" xlink:href="cover1.png" style="opacity:0.5;mix-blend-mode:multiply"/><circle cx="525" cy="451" r="171" style="fill:none;stroke-miterlimit:10;stroke-width:10px;stroke:url(#abc_4)"/><g style="clip-path:url(#clip-path-2)"><image width="342" height="342" transform="translate(-4 7)" xlink:href="assets/avatar.jpg"/></g></g></g></svg>